<svg width="21" height="21" viewBox="0 0 21 21" fill="none" xmlns="http://www.w3.org/2000/svg">
<path d="M20.4905 10.426C20.4905 9.58738 20.4224 8.97543 20.2752 8.34082H10.6992V12.1258H16.3201C16.2068 13.0664 15.5948 14.483 14.2349 15.4349L14.2159 15.5616L17.2436 17.9071L17.4534 17.9281C19.3798 16.1489 20.4905 13.5311 20.4905 10.426Z" fill="#4285F4"/>
<path d="M10.6992 20.3983C13.453 20.3983 15.7648 19.4917 17.4534 17.9279L14.2349 15.4347C13.3737 16.0353 12.2177 16.4546 10.6992 16.4546C8.00211 16.4546 5.71297 14.6754 4.89695 12.2163L4.77734 12.2265L1.62906 14.6629L1.58789 14.7774C3.26508 18.1091 6.71016 20.3983 10.6992 20.3983Z" fill="#34A853"/>
<path d="M4.89695 12.2164C4.68164 11.5818 4.55703 10.9018 4.55703 10.1993C4.55703 9.4966 4.68164 8.81668 4.88562 8.18207L4.87992 8.04691L1.69219 5.57129L1.58789 5.6209C0.896641 7.00348 0.5 8.55605 0.5 10.1993C0.5 11.8425 0.896641 13.395 1.58789 14.7775L4.89695 12.2164Z" fill="#FBBC05"/>
<path d="M10.6992 3.94367C12.6144 3.94367 13.9063 4.77094 14.6429 5.46227L17.5213 2.6518C15.7535 1.00859 13.453 0 10.6992 0C6.71016 0 3.26508 2.28914 1.58789 5.62086L4.88563 8.18203C5.71297 5.72289 8.00211 3.94367 10.6992 3.94367Z" fill="#EB4335"/>
</svg>
